<svg width="160" height="200" viewBox="0 0 160 200" fill="none" xmlns="http://www.w3.org/2000/svg">
<g clip-path="url(#clip0)">
<rect y="200" width="200" height="160" transform="rotate(-90 0 200)" fill="#EAD79B"/>
<path d="M16 74.5C10.8 77.7 15.2452 94.605 6 96.5C3.70458 96.9705 -1.5 95.8333 -1.5 95.5L-16 203.5L164 207L163.5 96.5C163.5 96.5 154.5 95.5 149 92.5C140.871 88.0658 140.5 69 132 77.5C123.5 86 125 115 112 114C92.5 112.5 112 57.5 91.5 61C71 64.5 80.5 91.5 70.5 86.5C60.5 81.5 61.5 59 46 66C30.5 73 32 95 26.5 91.5C21 88 22.5 70.5 16 74.5Z" fill="#D9C484"/>
<path d="M16 82.5C10.8 85.7 15.2452 102.605 6 104.5C3.70458 104.97 -1.5 103.833 -1.5 103.5L-16 211.5L164 215L163.5 104.5C163.5 104.5 154.5 103.5 149 100.5C140.871 96.0658 140.5 77 132 85.5C123.5 94 125 123 112 122C92.5 120.5 112 65.5 91.5 69C71 72.5 80.5 99.5 70.5 94.5C60.5 89.5 61.5 67 46 74C30.5 81 32 103 26.5 99.5C21 96 22.5 78.5 16 82.5Z" fill="#E1EDF1"/>
<path d="M10.5 123C7.7 127.8 -5.16667 121.5 -7.5 119.5L-9.5 213L165.5 207L161.5 124C151 119.5 141.2 107.4 136 107C129.5 106.5 132 121 128.5 126C126.261 129.199 120.5 134.5 107 131.5C93.5 128.5 95.5 107.5 89 103.5C82.5 99.5 78 111.65 71 112C61 112.5 54.5 92 46.5 98C38.5 104 34 120 29 118.5C24 117 18.5 109 15.5 114C12.1558 119.574 14 117 10.5 123Z" fill="#3EDCFF"/>
<path d="M10.5 149.5C8.1 153.1 -1 147.833 -3.5 148L-6.5 206L168.5 210.5L161.5 149.5C145 143.5 146.5 127.364 136.5 136C114.5 155 112.5 151 106.5 149C97.1807 145.894 84 131.5 77 128.5C70 125.5 71.5 131 64 133C56.5 135 53 127.5 46 128.5C39 129.5 40 144 30.5 148C21 152 22 145.5 17 144C12 142.5 13.5 145 10.5 149.5Z" fill="#0BB3D8"/>
</g>
<defs>
<clipPath id="clip0">
<rect y="200" width="200" height="160" transform="rotate(-90 0 200)" fill="white"/>
</clipPath>
</defs>
</svg>
