<svg width="160" height="200" viewBox="0 0 160 200" fill="none" xmlns="http://www.w3.org/2000/svg">
<g clip-path="url(#clip0)">
<rect x="160" width="200" height="160" transform="rotate(90 160 0)" fill="#EAD79B"/>
<path d="M144 125.5C149.2 122.3 144.755 105.395 154 103.5C156.295 103.03 161.5 104.167 161.5 104.5L176 -3.5L-4 -7L-3.5 103.5C-3.5 103.5 5.5 104.5 11 107.5C19.1293 111.934 19.5 131 28 122.5C36.5 114 35 85 48 86C67.5 87.5 48 142.5 68.5 139C89 135.5 79.5 108.5 89.5 113.5C99.5 118.5 98.5 141 114 134C129.5 127 128 105 133.5 108.5C139 112 137.5 129.5 144 125.5Z" fill="#D9C484"/>
<path d="M144 117.5C149.2 114.3 144.755 97.395 154 95.5C156.295 95.0295 161.5 96.1667 161.5 96.5L176 -11.5L-4 -15L-3.5 95.5C-3.5 95.5 5.5 96.5 11 99.5C19.1293 103.934 19.5 123 28 114.5C36.5 106 35 77 48 78C67.5 79.5 48 134.5 68.5 131C89 127.5 79.5 100.5 89.5 105.5C99.5 110.5 98.5 133 114 126C129.5 119 128 97 133.5 100.5C139 104 137.5 121.5 144 117.5Z" fill="#E1EDF1"/>
<path d="M149.5 77C152.3 72.2 165.167 78.5 167.5 80.5L169.5 -13L-5.5 -7L-1.5 76C9 80.5 18.8 92.6 24 93C30.5 93.5 28 79 31.5 74C33.7394 70.8008 39.5 65.5 53 68.5C66.5 71.5 64.5 92.5 71 96.5C77.5 100.5 82 88.35 89 88C99 87.5 105.5 108 113.5 102C121.5 96 126 80 131 81.5C136 83 141.5 91 144.5 86C147.844 80.4263 146 83 149.5 77Z" fill="#3EDCFF"/>
<path d="M149.5 50.5C151.9 46.9 161 52.1667 163.5 52L166.5 -6L-8.5 -10.5L-1.5 50.5C15 56.5 13.5 72.6364 23.5 64C45.5 45 47.5 49 53.5 51C62.8193 54.1064 76 68.5 83 71.5C90 74.5 88.5 69 96 67C103.5 65 107 72.5 114 71.5C121 70.5 120 56 129.5 52C139 48 138 54.5 143 56C148 57.5 146.5 55 149.5 50.5Z" fill="#0BB3D8"/>
</g>
<defs>
<clipPath id="clip0">
<rect x="160" width="200" height="160" transform="rotate(90 160 0)" fill="white"/>
</clipPath>
</defs>
</svg>
