<svg width="200" height="200" viewBox="0 0 200 200" fill="none" xmlns="http://www.w3.org/2000/svg">
<g clip-path="url(#clip0)">
<rect width="200" height="200" fill="#EAD79B"/>
<path d="M31 101C20 104.5 3 95.5 -3.5 95.5C-10 95.5 -19 178.867 -19 178.867L27.5 215.367L103 202.5C105.5 196.5 111.5 176 109.5 168C107 158 95.5 161 97.5 155.5C99.5 150 75 137 68 132C61 127 59.5 97.3668 51.5 93.8668C43.5 90.3668 42 97.5 31 101Z" fill="#D9C484"/>
<path d="M25 109C14 112.5 3.5 103.5 -3 103.5C-9.5 103.5 -28.5 186 -28.5 186L18 222.5L94 204.5C97 198.5 101.5 184.5 99.5 176.5C97 166.5 89.5 163.5 91.5 158C93.5 152.5 73 143 66 138C59 133 50 104.5 42 101C34 97.5 36 105.5 25 109Z" fill="#E1EDF1"/>
<path d="M80.5 189C83.3 191.8 76.5 197.5 76.5 201C76.5 204.5 44 208.5 44 208.5L-12 207.5L-9 167.5L-1.5 122.5C1 124 5.25225 127.559 9 128C17.5 129 22.9108 127.693 29.5 123.5C35 120 49.5 134.5 54 150C58.5 165.5 72.6319 167.517 68 173.5C56 189 77 185.5 80.5 189Z" fill="#3EDCFF"/>
<path d="M53.5 195L51 200L-6 207V181.5C-6 169.5 -4.7 146.2 0.5 149C7 152.5 22 143.5 26 140C30 136.5 36 140.5 38 146.5C40 152.5 45.5 161 52 166.5C58.5 172 51.5 181.5 50.5 185C49.5 188.5 51.5 188 53 190.5C54.2 192.5 53.8333 194.333 53.5 195Z" fill="#0BB3D8"/>
</g>
<defs>
<clipPath id="clip0">
<rect width="200" height="200" fill="white"/>
</clipPath>
</defs>
</svg>
