<svg width="200" height="160" viewBox="0 0 200 160" fill="none" xmlns="http://www.w3.org/2000/svg">
<g clip-path="url(#clip0)">
<rect x="200" y="160" width="200" height="160" transform="rotate(-180 200 160)" fill="#EAD79B"/>
<path d="M74.5 144C77.7 149.2 94.605 144.755 96.5 154C96.9705 156.295 95.8333 161.5 95.5 161.5L203.5 176L207 -4L96.5 -3.5C96.5 -3.5 95.5 5.5 92.5 11C88.0658 19.1293 69 19.5 77.5 28C86 36.5 115 35 114 48C112.5 67.5 57.5 48 61 68.5C64.5 89 91.5 79.5 86.5 89.5C81.5 99.5 59 98.5 66 114C73 129.5 95 128 91.5 133.5C88 139 70.5 137.5 74.5 144Z" fill="#D9C484"/>
<path d="M82.5 144C85.7 149.2 102.605 144.755 104.5 154C104.97 156.295 103.833 161.5 103.5 161.5L211.5 176L215 -4L104.5 -3.5C104.5 -3.5 103.5 5.5 100.5 11C96.0658 19.1293 77 19.5 85.5 28C94 36.5 123 35 122 48C120.5 67.5 65.5 48 69 68.5C72.5 89 99.5 79.5 94.5 89.5C89.5 99.5 67 98.5 74 114C81 129.5 103 128 99.5 133.5C96 139 78.5 137.5 82.5 144Z" fill="#E1EDF1"/>
<path d="M123 149.5C127.8 152.3 121.5 165.167 119.5 167.5L213 169.5L207 -5.5L124 -1.5C119.5 9 107.4 18.8 107 24C106.5 30.5 121 28 126 31.5C129.199 33.7394 134.5 39.5 131.5 53C128.5 66.5 107.5 64.5 103.5 71C99.5 77.5 111.65 82 112 89C112.5 99 92 105.5 98 113.5C104 121.5 120 126 118.5 131C117 136 109 141.5 114 144.5C119.574 147.844 117 146 123 149.5Z" fill="#3EDCFF"/>
<path d="M149.5 149.5C153.1 151.9 147.833 161 148 163.5L206 166.5L210.5 -8.5L149.5 -1.5C143.5 15 127.364 13.5 136 23.5C155 45.5 151 47.5 149 53.5C145.894 62.8193 131.5 76 128.5 83C125.5 90 131 88.5 133 96C135 103.5 127.5 107 128.5 114C129.5 121 144 120 148 129.5C152 139 145.5 138 144 143C142.5 148 145 146.5 149.5 149.5Z" fill="#0BB3D8"/>
</g>
<defs>
<clipPath id="clip0">
<rect x="200" y="160" width="200" height="160" transform="rotate(-180 200 160)" fill="white"/>
</clipPath>
</defs>
</svg>
