<svg width="200" height="160" viewBox="0 0 200 160" fill="none" xmlns="http://www.w3.org/2000/svg">
<g clip-path="url(#clip0)">
<rect width="200" height="160" fill="#EAD79B"/>
<path d="M125.5 16C122.3 10.8 105.395 15.2452 103.5 6C103.03 3.70458 104.167 -1.5 104.5 -1.5L-3.5 -16L-7 164L103.5 163.5C103.5 163.5 104.5 154.5 107.5 149C111.934 140.871 131 140.5 122.5 132C114 123.5 85 125 86 112C87.5 92.5 142.5 112 139 91.5C135.5 71 108.5 80.5 113.5 70.5C118.5 60.5 141 61.5 134 46C127 30.5 105 32 108.5 26.5C112 21 129.5 22.5 125.5 16Z" fill="#D9C484"/>
<path d="M117.5 16C114.3 10.8 97.395 15.2452 95.5 6C95.0295 3.70458 96.1667 -1.5 96.5 -1.5L-11.5 -16L-15 164L95.5 163.5C95.5 163.5 96.5 154.5 99.5 149C103.934 140.871 123 140.5 114.5 132C106 123.5 77 125 78 112C79.5 92.5 134.5 112 131 91.5C127.5 71 100.5 80.5 105.5 70.5C110.5 60.5 133 61.5 126 46C119 30.5 97 32 100.5 26.5C104 21 121.5 22.5 117.5 16Z" fill="#E1EDF1"/>
<path d="M77 10.5C72.2 7.7 78.5 -5.16667 80.5 -7.5L-13 -9.5L-7 165.5L76 161.5C80.5 151 92.6 141.2 93 136C93.5 129.5 79 132 74 128.5C70.8008 126.261 65.5 120.5 68.5 107C71.5 93.5 92.5 95.5 96.5 89C100.5 82.5 88.35 78 88 71C87.5 61 108 54.5 102 46.5C96 38.5 80 34 81.5 29C83 24 91 18.5 86 15.5C80.4263 12.1558 83 14 77 10.5Z" fill="#3EDCFF"/>
<path d="M50.5 10.5C46.9 8.1 52.1667 -1 52 -3.5L-6 -6.5L-10.5 168.5L50.5 161.5C56.5 145 72.6364 146.5 64 136.5C45 114.5 49 112.5 51 106.5C54.1064 97.1807 68.5 84 71.5 77C74.5 70 69 71.5 67 64C65 56.5 72.5 53 71.5 46C70.5 39 56 40 52 30.5C48 21 54.5 22 56 17C57.5 12 55 13.5 50.5 10.5Z" fill="#0BB3D8"/>
</g>
<defs>
<clipPath id="clip0">
<rect width="200" height="160" fill="white"/>
</clipPath>
</defs>
</svg>
