<?xml version="1.0" encoding="iso-8859-1"?>
<!-- Generator: Adobe Illustrator 19.0.0, SVG Export Plug-In . SVG Version: 6.00 Build 0)  -->
<svg version="1.1" id="Layer_1" xmlns="http://www.w3.org/2000/svg" xmlns:xlink="http://www.w3.org/1999/xlink" x="0px" y="0px"
	 viewBox="0 0 512 512" style="enable-background:new 0 0 512 512;" xml:space="preserve">
<g>
	<g>
		<path d="M476.668,178.5h7.832c4.143,0,7.5-3.358,7.5-7.5c0-4.142-3.357-7.5-7.5-7.5h-16.024c-0.424-0.694-0.829-1.398-1.262-2.087
			c-5.086-8.085-13.805-12.913-23.321-12.913H383.5v-15h11.913c11.175,0,21.136-6.627,25.377-16.884
			c4.979-12.042,6.265-25.392,3.877-38.116h16.29c4.143,0,7.5-3.358,7.5-7.5c0-4.142-3.357-7.5-7.5-7.5h-21.03
			c-4.631-9.177-14.039-15-24.514-15H383.5v-15h27.457c4.143,0,7.5-3.358,7.5-7.5s-3.357-7.5-7.5-7.5H383.5v-11
			c0-4.142-3.357-7.5-7.5-7.5s-7.5,3.358-7.5,7.5v11h-27.543c-4.143,0-7.5,3.358-7.5,7.5s3.357,7.5,7.5,7.5H368.5v15h-14.781
			c-5.777,0-11.178,2.846-14.446,7.613c-1.538,2.244-2.5,4.776-2.875,7.387h-25.44c-4.143,0-7.5,3.358-7.5,7.5
			c0,4.142,3.357,7.5,7.5,7.5h28.388c2.562,10.327,1.915,21.211-1.963,31.251c-2.07,5.358-1.363,11.391,1.891,16.136
			c3.269,4.767,8.669,7.613,14.446,7.613h14.78v15h-95.853c-5.988,0-11.336,3.101-14.304,8.293c-1.21,2.116-1.913,4.397-2.128,6.707
			H236c-4.143,0-7.5,3.358-7.5,7.5c0,4.142,3.357,7.5,7.5,7.5h25.327c26.829,49.558,25.877,109.788-2.866,158.584
			c-3.057,5.19-3.101,11.404-0.117,16.622c2.968,5.193,8.315,8.293,14.304,8.293H368.5v15h-129v-42.5c0-2.508-1.253-4.85-3.34-6.24
			c-10.892-7.261-23.454-10.704-35.933-10.343h-64.228c-12.199,0-24.011,3.577-34.159,10.343c-0.002,0.001-0.004,0.003-0.006,0.005
			c-0.21,0.141-0.413,0.29-0.607,0.451c-0.058,0.047-0.108,0.1-0.164,0.149c-0.126,0.111-0.253,0.22-0.372,0.339
			c-0.115,0.114-0.218,0.236-0.324,0.357c-0.054,0.062-0.112,0.12-0.164,0.183c-0.097,0.118-0.184,0.242-0.273,0.365
			c-0.054,0.075-0.112,0.147-0.164,0.224c-0.071,0.107-0.133,0.218-0.199,0.327c-0.061,0.102-0.125,0.201-0.181,0.306
			c-0.046,0.087-0.085,0.176-0.128,0.265c-0.065,0.133-0.131,0.265-0.188,0.402c-0.027,0.065-0.047,0.132-0.073,0.198
			c-0.062,0.162-0.124,0.325-0.174,0.492c-0.014,0.048-0.024,0.096-0.037,0.144c-0.052,0.184-0.102,0.37-0.14,0.56
			c-0.014,0.069-0.02,0.138-0.032,0.207c-0.03,0.176-0.06,0.353-0.078,0.533c-0.024,0.24-0.036,0.48-0.036,0.722
			c0,0.004-0.001,0.008-0.001,0.012V347h-15v-22.5c0-4.142-3.357-7.5-7.5-7.5H7.5c-4.143,0-7.5,3.358-7.5,7.5
			c0,4.142,3.357,7.5,7.5,7.5h1v15h-1c-4.143,0-7.5,3.358-7.5,7.5c0,4.142,3.357,7.5,7.5,7.5h24.345
			c-0.419,2.178-0.453,4.438-0.062,6.682c1.436,8.245,4.059,19.878,8.761,32.983c0.083,0.275,0.181,0.544,0.293,0.805
			c5.929,16.304,15.076,34.805,29.167,51.887C101.557,492.607,147.313,512,206,512h191.603c8.264,0,15.844-4.513,19.781-11.778
			c3.938-7.265,3.582-16.08-0.929-23.003l-3.225-4.951c-4.177-6.411-5.752-13.794-4.871-20.913c0.107-0.44,0.174-0.893,0.199-1.36
			c1.06-6.278,4.045-12.285,8.875-17.157l32.162-32.903c3.807-3.895,4.901-9.654,2.788-14.673c-2.112-5.02-6.997-8.263-12.442-8.263
			H383.5v-15h60.393c9.517,0,18.235-4.827,23.321-12.914c17.687-28.121,27.034-60.569,27.034-93.836
			C494.248,228.531,488.205,202.345,476.668,178.5z M38.5,347h-15v-15h15V347z M353.719,118.5c-1.153,0-1.795-0.686-2.075-1.095
			c-0.271-0.396-0.668-1.216-0.27-2.249c6.017-15.577,6.017-32.735,0-48.313c-0.398-1.032-0.002-1.851,0.27-2.248
			c0.28-0.409,0.923-1.095,2.075-1.095h41.694c5.082,0,9.603,2.99,11.516,7.616c0.253,0.613,0.484,1.234,0.713,1.856
			c0.103,0.376,0.231,0.742,0.388,1.092c4.082,11.909,3.722,25.155-1.101,36.82c-1.913,4.626-6.434,7.616-11.516,7.616H353.719z
			 M313.5,392h15v14h-15V392z M283.5,392h15v14h-15V392z M253.5,392h15v14h-15V392z M179.5,338.708
			c6.779-3.749,14.242-5.667,21.728-5.792H202c0.1,0,0.197-0.011,0.296-0.015c7.645,0.049,15.282,1.979,22.204,5.807V377h-15v-22.5
			c0-4.142-3.357-7.5-7.5-7.5s-7.5,3.358-7.5,7.5V377h-15V338.708z M113.5,338.716c6.878-3.8,14.579-5.799,22.499-5.799h28.672
			c-0.034,0.16-0.058,0.324-0.082,0.488c-0.011,0.077-0.026,0.152-0.035,0.229c-0.033,0.285-0.054,0.573-0.054,0.866V377h-10.084
			c-6.104,0-10.899-5.072-10.916-11.548C143.474,355.277,135.175,347,125,347h-11.5V338.716z M53.5,332h15v15h-15V332z M436.379,392
			l-29.608,30.29c-5.607,5.654-9.503,12.498-11.629,19.791h-35.764c-3.405,0-6.789,0.911-9.786,2.634
			C342.441,448.826,334.283,451,326,451h-70c-4.143,0-7.5,3.358-7.5,7.5c0,4.142,3.357,7.5,7.5,7.5h70
			c10.903,0,21.647-2.864,31.069-8.282c0.726-0.417,1.524-0.638,2.31-0.638h33.91c0.308,8.145,2.727,16.243,7.374,23.375
			l3.225,4.951c2.2,3.377,0.949,6.487,0.31,7.668c-0.64,1.18-2.563,3.926-6.594,3.926H206c-89.725,0-129.65-48.444-147.389-90
			h38.043c0.018,0,0.107,0.039,0.194,0.162C110.185,425.845,131.705,437,154.416,437h47.487c4.143,0,7.5-3.358,7.5-7.5
			c0-4.142-3.357-7.5-7.5-7.5h-47.487c-17.875,0-34.832-8.805-45.36-23.555c-2.883-4.036-7.519-6.445-12.466-6.445H52.992
			c-3.178-9.785-5.181-18.709-6.431-25.891c-0.244-1.405,0.377-2.397,0.77-2.864C47.723,362.78,48.59,362,50.009,362H76h49
			c1.925,0,3.495,1.566,3.5,3.49c0.037,14.865,11.421,26.51,25.916,26.51H172h60h6.5v21.5c0,4.142,3.357,7.5,7.5,7.5h90
			c4.143,0,7.5-3.358,7.5-7.5V392H436.379z M454.517,341.1c-2.323,3.694-6.295,5.9-10.624,5.9H272.647
			c-0.57,0-1.002-0.248-1.281-0.738c-0.203-0.354-0.364-0.914,0.02-1.565c32.143-54.568,32.473-122.21,1.037-177.064
			c-0.11-0.219-0.231-0.431-0.361-0.637c-0.229-0.396-0.443-0.797-0.675-1.192c-0.385-0.652-0.224-1.212-0.021-1.566
			c0.279-0.49,0.711-0.738,1.281-0.738h171.245c4.329,0,8.301,2.206,10.624,5.899C487.316,221.552,487.316,288.948,454.517,341.1z"
			/>
	</g>
</g>
<g>
	<g>
		<path d="M221.526,184.869c-2.869-2.988-7.614-3.087-10.604-0.219L87.32,303.247c-2.989,2.868-3.087,7.616-0.22,10.604
			c1.474,1.535,3.442,2.308,5.414,2.308c1.867,0,3.737-0.693,5.191-2.088l123.601-118.598
			C224.295,192.605,224.393,187.857,221.526,184.869z"/>
	</g>
</g>
<g>
	<g>
		<path d="M510.458,328.48c-2.517-3.29-7.224-3.919-10.514-1.402l-67.303,51.465c-3.29,2.515-3.918,7.223-1.402,10.513
			c1.477,1.931,3.707,2.945,5.964,2.945c1.589,0,3.191-0.503,4.55-1.543l67.303-51.465
			C512.346,336.477,512.974,331.77,510.458,328.48z"/>
	</g>
</g>
<g>
</g>
<g>
</g>
<g>
</g>
<g>
</g>
<g>
</g>
<g>
</g>
<g>
</g>
<g>
</g>
<g>
</g>
<g>
</g>
<g>
</g>
<g>
</g>
<g>
</g>
<g>
</g>
<g>
</g>
</svg>
